<svg xmlns="http://www.w3.org/2000/svg" fill="#57bfe1" viewBox="0 0 100 100">
  <path d="M5459.45431 2494.73834c-.62196 0-1.0366.41429-1.0366 1.03573s.41464 1.03573 1.0366 1.03573h4.45736c.62196 0 1.0366-.41429 1.0366-1.03573s-.41464-1.03573-1.0366-1.03573h-4.45736zm4.45736 3.52149h-4.45736c-.62196 0-1.0366.41429-1.0366 1.03573s.41464 1.03573 1.0366 1.03573h4.45736c.62196 0 1.0366-.41429 1.0366-1.03573s-.41464-1.03573-1.0366-1.03573zm0 3.41792h-4.45736c-.62196 0-1.0366.41429-1.0366 1.03573s.41464 1.03573 1.0366 1.03573h4.45736c.62196 0 1.0366-.41429 1.0366-1.03573 0-.51787-.41464-1.03573-1.0366-1.03573zM90.30138 41.08527c-4.25004 0-7.77447 3.00363-8.81107 6.93942H70.91703L62.31328 33.2137l5.28664-9.21803c.82928.20715 1.65855.41429 2.48783.41429 4.97566 0 9.01839-4.03936 9.01839-9.01088S75.06342 6.3882 70.08775 6.3882c-4.97566 0-9.01839 4.03936-9.01839 9.01088 0 2.58933 1.0366 4.86795 2.79881 6.52512l-5.28664 9.21803H41.4777l-5.28664-9.21803c1.76221-1.65717 2.79881-3.93579 2.79881-6.52512 0-4.97152-4.04272-9.01088-9.01839-9.01088-4.97566 0-9.01839 4.03936-9.01839 9.01088s4.04272 9.01088 9.01839 9.01088c.93294 0 1.76221-.20715 2.48783-.41429l5.28664 9.21803-8.50009 14.81099H18.67258c-.93294-3.93579-4.56102-6.93942-8.81107-6.93942-4.97566 0-9.01839 4.03936-9.01839 9.01088s4.04272 9.01088 9.01839 9.01088c4.25004 0 7.77447-3.00363 8.81107-6.93942h10.57328l8.60375 14.81099-5.28664 9.21803c-.82928-.20715-1.65855-.41429-2.48783-.41429-4.97566 0-9.01839 4.03936-9.01839 9.01088s4.04272 9.01088 9.01839 9.01088c4.97566 0 9.01839-4.03936 9.01839-9.01088 0-2.58933-1.14026-4.86795-2.79881-6.52512l5.28664-9.21803h17.10383l5.28664 9.21803c-1.76221 1.65717-2.79881 3.93579-2.79881 6.52512 0 4.97152 4.04272 9.01088 9.01839 9.01088 4.97566 0 9.01839-4.03936 9.01839-9.01088s-4.04272-9.01088-9.01839-9.01088c-.93294 0-1.76221.20715-2.48783.41429l-5.28664-9.21803 8.60375-14.81099h10.57328c.93294 3.93579 4.56102 6.93942 8.81107 6.93942 4.97566 0 9.01839-4.03936 9.01839-9.01088-.10366-4.97152-4.14638-9.01088-9.12205-9.01088zM70.19142 10.53113c2.69515 0 4.76834 2.17504 4.76834 4.76437 0 2.69291-2.17685 4.76437-4.76834 4.76437-2.69515 0-4.76834-2.17504-4.76834-4.76437 0-2.58933 2.07319-4.76437 4.76834-4.76437zM25.20315 15.2955c0-2.69291 2.17685-4.76437 4.76834-4.76437 2.69515 0 4.76834 2.17504 4.76834 4.76437 0 2.69291-2.17685 4.76437-4.76834 4.76437-2.59149.10357-4.76834-2.07147-4.76834-4.76437zM9.86153 54.86053c-2.69515 0-4.76834-2.17504-4.76834-4.76437 0-2.69291 2.17685-4.76437 4.76834-4.76437s4.76834 2.17504 4.76834 4.76437c.10366 2.69291-2.07319 4.76437-4.76834 4.76437zm20.10996 34.80065c-2.69515 0-4.76834-2.17504-4.76834-4.76437 0-2.69291 2.17685-4.76437 4.76834-4.76437 2.69515 0 4.76834 2.17504 4.76834 4.76437 0 2.58933-2.07319 4.76437-4.76834 4.76437zm44.98827-4.76437c0 2.69291-2.17685 4.76437-4.76834 4.76437-2.69515 0-4.76834-2.17504-4.76834-4.76437 0-2.69291 2.17685-4.76437 4.76834-4.76437 2.59149-.10357 4.76834 2.07147 4.76834 4.76437zM58.6852 64.90715H41.47771l-8.50009-14.81099 8.60375-14.81099H58.6852l8.50009 14.81099-8.50009 14.81099zm31.61618-10.04662c-2.69515 0-4.76834-2.17504-4.76834-4.76437 0-2.69291 2.17685-4.76437 4.76834-4.76437 2.69515 0 4.76834 2.17504 4.76834 4.76437 0 2.69291-2.17685 4.76437-4.76834 4.76437z"/>
  <path d="M54.37811 38.70184c-1.21517.7291-1.57973 2.18731-.97214 3.40248l5.46828 9.47835c.48607.85062 1.33669 1.21517 2.18731 1.21517.36455 0 .85062-.12152 1.21517-.36455 1.21517-.7291 1.57973-2.18731.97214-3.40248l-5.46828-9.47835c-.7291-1.09366-2.18731-1.45821-3.40248-.85062zM41.37576 49.15233c-.7291-1.21517-2.18731-1.57973-3.40248-.97214-1.21517.7291-1.57973 2.18731-.97214 3.40248l5.46828 9.47835c.48607.85062 1.33669 1.21517 2.18731 1.21517.36455 0 .85062-.12152 1.21517-.36455 1.21517-.7291 1.57973-2.18731.97214-3.40248l-5.46828-9.35683z"/>
</svg>
